<svg xmlns="http://www.w3.org/2000/svg" viewBox="26.45 -3.00 42 42"><title>Shikho</title><path fill="#355DAB" d="M36.083 18.428c-.01-.151 7.697-1.002 14.285-1.702 4.913-.522 9.205-.961 9.205-.961s0 9.447-7.718 12.567c0 0-5.956 2.247-11.914-2.163 0 0-3.532-2.596-3.858-7.74Z"/><path fill="#FF1C5A" d="m50.367 16.726 11.89-3.291-3.898 7.79-7.992-4.499Z"/><path fill="#FAA700" d="M55.378 9.357c5.369-1 6.88 4.078 6.88 4.078l-11.891 3.292c.107-6.947 5.011-7.37 5.011-7.37Z"/><path fill="#355DAB" d="m61.553 10.873 4.049-1.823-2.842 4.014-1.207-2.19Z"/><path fill="#E2008D" d="M31.559 7.608s-.504-.75 0-1.331c0 0 .838-.833 1.762 0l10.068 11.82s.671.914 0 1.414c0 0-.672 1.165-2.265-.417L31.56 7.608ZM29.95 9.1s-.411-.61 0-1.088c0 0 .684-.679 1.438 0l8.22 9.652s.549.747 0 1.155c0 0-.548.951-1.849-.34L29.95 9.1ZM29.31 11.149s-.328-.487 0-.866c0 0 .545-.54 1.146 0l6.548 7.688s.436.595 0 .92c0 0-.437.757-1.474-.27l-6.22-7.472ZM50.367 16.717l9.253-.966s-.182 3.411-1.22 5.487l-8.033-4.521Z"/><path fill="#355DAB" d="m59.62 15.75 2.698-2.341-3.92 7.83s1.23-3.894 1.221-5.488Z"/><path fill="#fff" d="M57.967 12.12c.178-.71.972-.428 1.429-.734-.454-.585-1.631-.124-1.44.662"/><path fill="#E2008D" d="M37.816 23.75s1.388 2.153 3.16 3.117l-7.174 2.851 4.014-5.968Z"/></svg>